<svg width="80" height="80" viewBox="0 0 80 80" fill="none" xmlns="http://www.w3.org/2000/svg">
<path d="M39.9996 45.714C47.8894 45.714 54.2853 39.3181 54.2853 31.4283C54.2853 23.5385 47.8894 17.1426 39.9996 17.1426C32.1098 17.1426 25.7139 23.5385 25.7139 31.4283C25.7139 39.3181 32.1098 45.714 39.9996 45.714Z" stroke="white" stroke-width="3" stroke-linecap="round" stroke-linejoin="round"/>
<path d="M15.5996 67.9996C18.1496 63.8139 21.7334 60.3545 26.0065 57.9545C30.2797 55.5538 35.0984 54.293 39.9996 54.293C44.9008 54.293 49.7196 55.5538 53.9927 57.9545C58.266 60.3545 61.8494 63.8139 64.3997 67.9996" stroke="white" stroke-width="3" stroke-linecap="round" stroke-linejoin="round"/>
<path d="M39.9998 77.1426C60.5135 77.1426 77.1426 60.5135 77.1426 39.9998C77.1426 19.4864 60.5135 2.85693 39.9998 2.85693C19.4864 2.85693 2.85693 19.4864 2.85693 39.9998C2.85693 60.5135 19.4864 77.1426 39.9998 77.1426Z" stroke="white" stroke-width="3" stroke-linecap="round" stroke-linejoin="round"/>
</svg>
