<svg width="31" height="30" viewBox="0 0 31 30" fill="none" xmlns="http://www.w3.org/2000/svg">
<path d="M17.6929 27.9906L16.1679 29.5157C15.5221 30.1614 14.4779 30.1614 13.839 29.5157L0.484314 16.1678C-0.161438 15.5221 -0.161438 14.4779 0.484314 13.839L13.839 0.484314C14.4848 -0.161438 15.529 -0.161438 16.1679 0.484314L17.6929 2.00939C18.3455 2.66201 18.3318 3.72681 17.6654 4.3657L9.38745 12.2521H29.131C30.0447 12.2521 30.7797 12.9872 30.7797 13.9008V16.0992C30.7797 17.0128 30.0447 17.7479 29.131 17.7479H9.38745L17.6654 25.6343C18.3387 26.2732 18.3524 27.338 17.6929 27.9906Z" fill="black"/>
</svg>
